<?xml version="1.0" encoding="utf-8"?>
<!-- Generator: Adobe Illustrator 12.0.0, SVG Export Plug-In . SVG Version: 6.00 Build 51448)  -->
<!DOCTYPE svg PUBLIC "-//W3C//DTD SVG 1.1//EN" "http://www.w3.org/Graphics/SVG/1.1/DTD/svg11.dtd" [
	<!ENTITY ns_svg "http://www.w3.org/2000/svg">
	<!ENTITY ns_xlink "http://www.w3.org/1999/xlink">
]>
<svg  version="1.1" id="Ebene_4" xmlns="&ns_svg;" xmlns:xlink="&ns_xlink;" width="1260.815" height="1287.49"
	 viewBox="0 0 1260.815 1287.49" overflow="visible" enable-background="new 0 0 1260.815 1287.49" xml:space="preserve">
<path id="HausBlick_x5F_Icon" fill="#687450" d="M1057.399,340.118C1029.545,318.333,599.285,0,599.285,0L0,446.389v841.102h141.984
	l0-380.085h297.838l0.001,380.085h136.751c0,0,164.595,0,287.46,0c122.858,0,273.178-83.949,273.178-246.072
	c0-162.124-134.32-219.177-134.32-219.177s52.887-14.864,54.507-125.824c6.49-166.114-174.469-204.136-194.666-204.136
	c-17.519,0-422.911,0-422.911,0v282.59H141.984V508.505l457.301-338.396c0,0,242.723,182.124,412.696,310.167
	c176.114,123.696,107.331,304.939,89.868,328.256c21.771,9.977,85.42,99.843,91.377,127.951
	c8.73-8.731,59.979-114.243,66.99-242.063C1272.786,465.276,1083.679,363.478,1057.399,340.118z M576.575,624.33
	c0,0,253.138,0,265.719,0.079c18.729-0.079,80.544,15.981,80.544,76.652c0,63.269-54.75,77.055-80.544,77.055
	c-4.775,0-265.719,0-265.719,0V624.33z M576.575,907.57c0,0,261.301-0.165,275.451-0.165c18.638,0,146.065,0,146.328,124.424
	c0.285,134.968-146.328,126.859-146.328,126.859l-275.451-0.328V907.57z"/>
</svg>
